<svg width="580" height="400" xmlns="http://www.w3.org/2000/svg">
 <!-- Created with Method Draw - http://github.com/duopixel/Method-Draw/ -->
 <defs>
  <linearGradient spreadMethod="pad" y2="0.640625" x2="0.78125" y1="0.300781" x1="0.3125" id="svg_7">
   <stop offset="0.167969" stop-color="#none"/>
   <stop offset="0.835938" stop-color="#NaNNaNNaN"/>
  </linearGradient>
  <linearGradient y2="0" x2="1" y1="0" x1="0" id="svg_8">
   <stop offset="0.144531" stop-color="#none"/>
   <stop offset="0.875" stop-color="#NaNNaNNaN"/>
  </linearGradient>
 </defs>
 <g>
  <title>background</title>
  <rect fill="#fff" id="canvas_background" height="402" width="582" y="-1" x="-1"/>
  <g display="none" overflow="visible" y="0" x="0" height="100%" width="100%" id="canvasGrid">
   <rect fill="url(#gridpattern)" stroke-width="0" y="0" x="0" height="100%" width="100%"/>
  </g>
 </g>
 <g>
  <title>Layer 1</title>
  <ellipse ry="36" rx="37" id="svg_2" cy="163.421875" cx="147" stroke-opacity="null" stroke-width="1.5" stroke="#000" fill="#ffaa56"/>
  <path id="svg_3" d="m106,290.42188c40,89 131,-6.84375 142,-66.42188c11,-59.57812 -182,-22.57812 -142,66.42188z" fill-opacity="0.51" stroke-opacity="null" stroke-width="1.5" stroke="#000" fill="url(#svg_8)"/>
  <path transform="rotate(-174.2232666015625 338.4935913085937,194.78636169433594) " id="svg_4" d="m270,224.42188c40,89 131,-6.84375 142,-66.42188c11,-59.57812 -182,-22.57812 -142,66.42188z" stroke-opacity="null" stroke-width="1.5" stroke="#000" fill="#007f00"/>
  <path stroke="#000" transform="rotate(-93.9234390258789 242.18563842773438,116.11464691162111) " id="svg_5" d="m173.692088,92.351439c40,-71.36453 131,5.487652 142,53.260295c11,47.772635 -182,18.104235 -142,-53.260295z" fill-opacity="0.17" stroke-opacity="null" stroke-width="1.5" fill="url(#svg_7)"/>
  <ellipse ry="36" rx="37" id="svg_6" cy="298.421875" cx="267" stroke-opacity="null" stroke-width="1.5" stroke="#000" fill="#ffff56"/>
 </g>
</svg>